HIERARCHY
ROOT Hips
{
  OFFSET 63.5465 96.0804 -22.47
  CHANNELS 6 Xposition Yposition Zposition Zrotation Xrotation Yrotation
  JOINT RightUpLeg
  {
    OFFSET -8.9458 -8.66707 0.101652
    CHANNELS 3 Zrotation Xrotation Yrotation
    JOINT RightLeg
    {
      OFFSET 0 -44.4227 1.3727
      CHANNELS 3 Zrotation Xrotation Yrotation
      JOINT RightFoot
      {
        OFFSET 0.253549 -42.0924 -1.46059
        CHANNELS 3 Zrotation Xrotation Yrotation
        JOINT RightToes
        {
          OFFSET 0.04 -4.41509 8.4991
          CHANNELS 3 Zrotation Xrotation Yrotation
          End Site
          {
            OFFSET -0.08 -0.137448 9.77979
          }
        }
      }
    }
  }
  JOINT Spine
  {
    OFFSET 0 11.8905 0
    CHANNELS 3 Zrotation Xrotation Yrotation
    JOINT Spine1
    {
      OFFSET 0 25.6574 0.127663
      CHANNELS 3 Zrotation Xrotation Yrotation
      JOINT HEad
      {
        OFFSET 0 8.73416 0.011341
        CHANNELS 3 Zrotation Xrotation Yrotation
        End Site
        {
          OFFSET -0.29 12.7742 2.51395
        }
      }
      JOINT LeftShoulder1
      {
        OFFSET 8.99 -0.362252 -0.22
        CHANNELS 3 Zrotation Xrotation Yrotation
        JOINT LeftArm
        {
          OFFSET 10.2827 -0.00338 0.322123
          CHANNELS 3 Zrotation Xrotation Yrotation
          JOINT LeftForeArm
          {
            OFFSET 32.7669 0.099144 -1.42434
            CHANNELS 3 Zrotation Xrotation Yrotation
            JOINT LeftHand
            {
              OFFSET 27.5643 0.085362 1.02216
              CHANNELS 3 Zrotation Xrotation Yrotation
              End Site
              {
                OFFSET 16.7443 -0.6 1.50291
              }
            }
          }
        }
      }
      JOINT RightShoulder
      {
        OFFSET -8.99 -0.362252 -0.22
        CHANNELS 3 Zrotation Xrotation Yrotation
        JOINT RightArm
        {
          OFFSET -10.2827 -0.00338 0.322123
          CHANNELS 3 Zrotation Xrotation Yrotation
          JOINT RightForeArm
          {
            OFFSET -32.8971 0.099144 -1.42434
            CHANNELS 3 Zrotation Xrotation Yrotation
            JOINT RightHand
            {
              OFFSET -27.4921 0.085362 1.02216
              CHANNELS 3 Zrotation Xrotation Yrotation
              End Site
              {
                OFFSET -16.6312 -0.6 1.50291
              }
            }
          }
        }
      }
    }
  }
  JOINT LeftUpLeg
  {
    OFFSET 8.9458 -8.66707 0.101652
    CHANNELS 3 Zrotation Xrotation Yrotation
    JOINT LeftLeg
    {
      OFFSET 0 -44.4227 1.3727
      CHANNELS 3 Zrotation Xrotation Yrotation
      JOINT LeftFoot
      {
        OFFSET -0.253549 -42.0924 -1.46059
        CHANNELS 3 Zrotation Xrotation Yrotation
        JOINT LeftToes
        {
          OFFSET -0.04 -4.41509 8.4991
          CHANNELS 3 Zrotation Xrotation Yrotation
          End Site
          {
            OFFSET 0.08 -0.047448 9.77979
          }
        }
      }
    }
  }
}
MOTION
Frames:	21
Frame Time:	0.0166667
59.1142 96.9872 -26.9931 2.67461 13.351 165.573 -32.8415 7.68731 20.9648 44.0455 -1.68615 -47.436 -29.8631 -1.81344 -1.46927 0.0462048 0.000533403 0.662642 -13.4897 26.228 4.06351 -0.00107012 0.000790011 -0.000379953 -10.0659 25.5944 9.21462 2.78299e-015 -3.18055e-015 4.77083e-015 -177.048 -59.517 -147.776 -99.1441 69.1918 -16.7518 17.6429 18.4758 -9.35981 18.9444 8.98962 -0.671138 101.392 -7.81728 71.7004 17.3962 50.8859 85.9856 16.803 21.8659 7.04606 15.1434 0.13183 -26.2074 -24.0816 10.4231 69.8257 -19.7638 -1.41492 -0.662708 -1.29886e-009 1.55997e-007 -4.8703e-009 
58.4814 97.0007 -27.2538 2.83077 13.3849 165.489 -32.0367 5.80538 19.1686 46.1141 4.36338 -45.7368 -32.6929 -1.07537 -1.64983 0.0462048 0.000533403 0.662642 -13.3907 26.45 3.8618 -0.00107012 0.000790011 -0.000379953 -9.82973 23.7085 11.0964 2.38542e-015 3.18055e-015 1.59028e-015 -176.313 -59.4631 -147.408 -97.7002 69.4598 -17.9963 17.5554 18.4727 -9.30311 19.1306 9.18645 -0.457247 101.817 -8.04973 72.1621 16.5124 51.1519 87.0228 16.858 21.7608 7.00591 15.1949 -0.0770406 -23.8907 -24.527 11.8422 68.5308 -20.9661 -1.69983 -0.838497 -1.29886e-009 1.55997e-007 -4.8703e-009 
57.8799 97.0738 -27.4954 3.03033 13.3768 165.434 -31.8597 3.83651 17.6394 48.8392 10.4912 -44.3867 -30.294 -0.848277 -1.5118 0.0462048 0.000533403 0.662642 -13.1862 26.6585 3.61995 -0.00107012 0.000790011 -0.000379953 -9.61482 22.0263 12.8027 3.18055e-015 0 1.59028e-015 -175.76 -59.3087 -147.181 -96.5955 69.7262 -18.9873 17.5264 18.4902 -9.27103 19.2478 9.36605 -0.218551 102.271 -8.24726 72.6501 15.6163 51.4075 88.0877 16.903 21.6641 6.96847 15.2899 -0.240911 -21.699 -24.7609 13.1517 67.2335 -22.2131 -1.83796 -0.964254 -1.29887e-009 1.55997e-007 -4.8703e-009 
57.2886 97.1488 -27.6692 3.26764 13.3263 165.414 -31.572 1.86014 16.1878 50.1885 15.0046 -43.4514 -30.3666 -0.535528 -1.70061 0.0462048 0.000533403 0.662642 -12.8865 26.8446 3.34884 -0.00107012 0.000790011 -0.000379953 -9.42416 20.554 14.3239 2.38542e-015 0 -1.59028e-015 -175.324 -59.0597 -147.034 -95.7494 70.0019 -19.7854 17.5342 18.5202 -9.17799 19.308 9.52601 0.0314223 102.745 -8.41035 73.1635 14.7216 51.6522 89.1688 16.9385 21.5506 6.9008 15.4625 -0.476832 -19.6364 -24.9836 14.4193 65.9827 -23.4623 -1.93488 -1.0811 -1.29886e-009 1.55997e-007 -4.87031e-009 
56.722 97.2552 -27.7809 3.53357 13.2317 165.434 -31.4237 -0.00045695 14.9028 50.8646 18.5228 -42.7429 -29.387 -0.388091 -1.71712 0.0462048 0.000533403 0.662642 -12.5044 26.9998 3.06006 -0.00107012 0.000790011 -0.000379953 -9.26147 19.2916 15.6516 1.59028e-015 3.18055e-015 -4.77083e-015 -174.943 -58.7216 -146.909 -95.0786 70.2914 -20.4536 17.5631 18.5489 -9.07362 19.3213 9.66343 0.291879 103.232 -8.54871 73.7065 13.8304 51.8827 90.2596 16.9535 21.4601 6.83196 15.6581 -0.718981 -17.7117 -25.0594 15.5494 64.7287 -24.7018 -1.9472 -1.15713 -1.29885e-009 1.55997e-007 -4.8703e-009 
56.184 97.3714 -27.8307 3.81724 13.0932 165.5 -31.2227 -1.66717 13.7343 51.0428 21.3584 -42.0914 -29.0191 -0.266974 -1.73803 0.0462048 0.000533403 0.662642 -12.0514 27.1189 2.76196 -0.00107012 0.000790011 -0.000379953 -9.13222 18.2328 16.7807 0 0 -7.95139e-015 -174.576 -58.2975 -146.758 -94.5262 70.5959 -21.0308 17.598 18.5751 -8.91256 19.2913 9.77553 0.568223 103.731 -8.67509 74.2867 12.9383 52.0937 91.3557 16.9533 21.3749 6.73689 15.8946 -1.01024 -15.9299 -25.0787 16.5767 63.4949 -25.9336 -1.93658 -1.22036 -1.29887e-009 1.55997e-007 -4.8703e-009 
55.676 97.5058 -27.8228 4.107 12.9143 165.616 -31.0262 -3.09551 12.708 50.9417 23.7165 -41.4581 -28.3583 -0.222643 -1.73229 0.0462048 0.000533403 0.662642 -11.5371 27.2016 2.45918 -0.00107012 0.000790011 -0.000379953 -9.04235 17.3674 17.7098 -7.95139e-016 0 4.77083e-015 -174.198 -57.791 -146.545 -94.0665 70.9157 -21.5289 17.6409 18.5876 -8.7295 19.2165 9.86049 0.861335 104.245 -8.7971 74.9108 12.0404 52.2801 92.4508 16.9454 21.3094 6.62821 16.1434 -1.3331 -14.2973 -25.0075 17.4654 62.2688 -27.1493 -1.90028 -1.26528 -1.29886e-009 1.55997e-007 -4.87031e-009 
55.204 97.6518 -27.7656 4.39208 12.7017 165.787 -30.7848 -4.26561 11.8169 50.6417 25.6931 -40.8009 -27.8327 -0.203782 -1.71854 0.0462048 0.000533403 0.662642 -10.97 27.2502 2.15399 -0.00107012 0.000790011 -0.000379953 -8.99646 16.6833 18.4419 0 0 -4.77083e-015 -173.798 -57.2093 -146.245 -93.688 71.2497 -21.9472 17.6958 18.5853 -8.50454 19.0983 9.91717 1.16299 104.773 -8.91487 75.5795 11.1338 52.4386 93.5344 16.9317 21.2438 6.50125 16.3958 -1.68549 -12.822 -24.8639 18.2147 61.0551 -28.3502 -1.85581 -1.30071 -1.29887e-009 1.55997e-007 -4.87031e-009 
54.7775 97.8064 -27.67 4.66324 12.4643 166.018 -30.5136 -5.17837 11.0709 50.2258 27.3402 -40.1197 -27.2342 -0.21002 -1.69367 0.0462048 0.000533403 0.662642 -10.3592 27.2685 1.84791 -0.00107012 0.000790011 -0.000379953 -8.99664 16.1686 18.9835 -3.18055e-015 0 -0 -173.375 -56.5647 -145.842 -93.3925 71.5952 -22.2753 17.7694 18.5634 -8.26491 18.9412 9.94376 1.46004 105.307 -9.02483 76.2837 10.2172 52.5691 94.5959 16.9147 21.1811 6.37253 16.6365 -2.04598 -11.5125 -24.6391 18.8111 59.8485 -29.5401 -1.8036 -1.32628 -1.29886e-009 1.55997e-007 -4.8703e-009 
54.4065 97.9605 -27.547 4.913 12.2124 166.311 -30.2041 -5.84436 10.4711 49.7423 28.6784 -39.4166 -26.6926 -0.230856 -1.66493 0.0462048 0.000533403 0.662642 -9.71541 27.2595 1.54291 -0.00107012 0.000790011 -0.000379953 -9.04234 15.8121 19.345 -7.95139e-016 -6.36111e-015 3.18055e-015 -172.939 -55.8743 -145.338 -93.1918 71.9476 -22.4965 17.8609 18.5276 -8.00277 18.746 9.93813 1.74279 105.841 -9.12542 77.0062 9.2901 52.6731 95.6267 16.9005 21.108 6.24149 16.8579 -2.39667 -10.3748 -24.3375 19.2556 58.6495 -30.7275 -1.74698 -1.34441 -1.29887e-009 1.55997e-007 -4.87029e-009 
54.1008 98.1344 -27.4313 5.13778 11.9629 166.672 -29.8504 -5.72657 11.0857 49.2923 28.5505 -39.0818 -26.1874 -0.323483 -1.62228 0.0462048 0.000533403 0.662642 -9.04843 27.2316 1.23502 -0.00107012 0.000790011 -0.000379953 -9.13051 15.6047 19.54 2.38542e-015 0 -0 -172.51 -55.1605 -144.74 -93.0829 72.3035 -22.6132 17.9629 18.4892 -7.73826 18.5083 9.90225 2.00461 106.373 -9.2158 77.7251 8.35303 52.7524 96.6219 16.8944 21.0275 6.11807 17.0187 -2.66045 -9.42207 -23.8747 19.4864 57.4216 -31.9199 -1.65196 -1.32845 -1.29886e-009 1.55997e-007 -4.87031e-009 
53.9091 98.2436 -27.3773 5.33414 11.7364 167.109 -29.1302 -5.0212 12.6472 50.0498 28.4993 -38.9526 -29.2244 0.000970353 -1.65762 0.0462048 0.000533403 0.662642 -8.37146 27.1938 0.917715 -0.00107012 0.000790011 -0.000379953 -9.25533 15.5404 19.5868 2.38542e-015 0 -1.59028e-015 -172.095 -54.4529 -144.057 -93.0269 72.6642 -22.6667 18.0621 18.4656 -7.46872 18.2232 9.84604 2.23341 106.901 -9.28797 78.4171 7.40644 52.8082 97.5834 16.8916 20.9364 6.00333 17.2352 -2.91372 -8.66747 -23.5266 19.7182 56.2628 -33.182 -1.64982 -1.37802 -1.29886e-009 1.55997e-007 -4.87031e-009 
53.7836 98.3946 -27.3282 5.49555 11.5415 167.612 -28.9334 -4.44652 14.258 50.4534 27.7295 -39.074 -26.808 -0.357349 -1.61075 0.0462048 0.000533403 0.662642 -7.70866 27.1415 0.59894 -0.00107012 0.000790011 -0.000379953 -9.4079 15.6123 19.5059 0 0 -3.18055e-015 -171.703 -53.779 -143.298 -92.9767 73.0361 -22.7076 18.1532 18.4563 -7.19865 17.888 9.78236 2.40998 107.424 -9.32631 79.0595 6.45155 52.844 98.5171 16.8966 20.8444 5.89664 17.3093 -2.96808 -8.09415 -22.8497 19.6157 55.0145 -34.4377 -1.50705 -1.32048 -1.29886e-009 1.55997e-007 -4.87029e-009 
53.7334 98.5323 -27.2668 5.61594 11.3806 168.164 -28.4943 -3.85118 15.7155 50.2628 26.4284 -39.0914 -27.1496 -0.351278 -1.60483 0.0462048 0.000533403 0.662642 -7.08466 27.0697 0.292203 -0.00107012 0.000790011 -0.000379953 -9.57811 15.8103 19.3176 3.97569e-016 0 -3.18055e-015 -171.339 -53.1551 -142.479 -92.9059 73.4229 -22.7668 18.2185 18.4634 -6.93391 17.5294 9.71935 2.51962 107.919 -9.32489 79.6358 5.49715 52.8647 99.425 16.8809 20.7461 5.80227 17.4167 -3.2173 -7.64626 -22.6363 19.5013 53.9755 -33.5078 -1.57517 -1.30124 -1.29887e-009 1.55997e-007 -4.8703e-009 
53.7494 98.6473 -27.1892 5.69117 11.2526 168.747 -28.212 -3.28492 17.1078 49.9369 24.9145 -39.2543 -26.1854 -0.466749 -1.55225 0.0462048 0.000533403 0.662642 -6.52005 26.9756 0.0142267 -0.00107012 0.000790011 -0.000379953 -9.75619 16.122 19.0385 2.38542e-015 3.18055e-015 1.59028e-015 -171.014 -52.5861 -141.623 -92.8299 73.82 -22.8334 18.2559 18.4724 -6.67651 17.1987 9.65351 2.55032 108.347 -9.29118 80.1289 4.56141 52.8776 100.302 16.8531 20.648 5.71425 17.4829 -3.37949 -7.34269 -22.305 19.3232 52.9496 -32.686 -1.60485 -1.25945 -1.29886e-009 1.55997e-007 -4.87031e-009 
53.8269 98.7222 -27.0859 5.71947 11.1562 169.342 -27.9107 -2.6987 18.3855 49.4771 23.2986 -39.4979 -25.8976 -0.55675 -1.51991 0.0462048 0.000533403 0.662642 -6.03086 26.8587 -0.21684 -0.00107012 0.000790011 -0.000379953 -9.93349 16.5351 18.6814 -7.95139e-016 -3.18055e-015 1.59028e-015 -170.738 -52.072 -140.752 -92.8002 74.2161 -22.861 18.266 18.4708 -6.42688 16.9526 9.57329 2.48964 108.659 -9.2414 80.5199 3.66691 52.8896 101.14 16.8143 20.5528 5.63141 17.5318 -3.52028 -7.16167 -21.9714 19.1285 51.9973 -31.9366 -1.63536 -1.2232 -1.29887e-009 1.55997e-007 -4.87031e-009 
53.9629 98.7654 -26.9553 5.7004 11.0915 169.931 -27.6688 -2.08589 19.5752 48.9672 21.661 -39.8279 -25.3091 -0.667942 -1.47404 0.0462048 0.000533403 0.662642 -5.63013 26.7208 -0.385098 -0.00107012 0.000790011 -0.000379953 -10.1027 17.0358 18.258 3.97569e-016 0 1.59028e-015 -170.517 -51.6143 -139.881 -92.8729 74.6002 -22.7969 18.2601 18.4541 -6.18773 16.8173 9.47278 2.33365 108.834 -9.19195 80.7986 2.8287 52.9042 101.933 16.7796 20.4714 5.54903 17.5492 -3.64642 -7.08552 -21.6378 18.8962 51.1334 -31.2362 -1.65555 -1.18344 -1.29886e-009 1.55997e-007 -4.8703e-009 
54.1539 98.7657 -26.7926 5.62395 11.0575 170.501 -27.3803 -1.36949 20.6827 48.1304 19.7324 -40.063 -24.7048 -0.841292 -1.42039 0.0462048 0.000533403 0.662642 -5.33883 26.5634 -0.478537 -0.00107012 0.000790011 -0.000379953 -10.2583 17.6071 17.7828 1.98785e-015 3.18055e-015 1.59028e-015 -170.347 -51.2154 -139.013 -93.0665 74.9646 -22.618 18.2464 18.4282 -5.96807 16.7596 9.36132 2.09861 108.907 -9.15085 80.9747 2.04729 52.9192 102.683 16.7498 20.4069 5.46777 17.5141 -3.76309 -7.0947 -21.2949 18.6175 50.3659 -30.5775 -1.64755 -1.12914 -1.29886e-009 1.55997e-007 -4.8703e-009 
54.4016 98.7008 -26.6022 5.48197 11.0524 171.038 -27.0234 -0.521785 21.707 47.0261 17.6696 -40.2455 -24.0798 -1.03356 -1.36253 0.0462048 0.000533403 0.662642 -5.17274 26.3908 -0.494807 -0.00107012 0.000790011 -0.000379953 -10.398 18.2267 17.2747 7.95139e-016 -6.36111e-015 -0 -170.207 -50.8761 -138.148 -93.345 75.3037 -22.3462 18.2331 18.3959 -5.78173 16.7046 9.25928 1.82106 108.952 -9.1171 81.0742 1.31161 52.9288 103.394 16.7271 20.3587 5.38533 17.4305 -3.88697 -7.17235 -20.9728 18.3276 49.7126 -29.9739 -1.61783 -1.06646 -1.29887e-009 1.55997e-007 -4.8703e-009 
54.7067 98.5687 -26.3879 5.27169 11.0743 171.534 -26.6289 0.447518 22.6473 45.7569 15.6065 -40.4092 -23.4268 -1.23684 -1.30539 0.0462048 0.000533403 0.662642 -5.13821 26.2111 -0.441108 -0.00107012 0.000790011 -0.000379953 -10.5226 18.8685 16.7561 -1.59028e-015 0 1.59028e-015 -170.077 -50.5936 -137.287 -93.6462 75.6138 -22.0282 18.2208 18.3649 -5.64258 16.5906 9.1837 1.54208 109.031 -9.08718 81.1214 0.609824 52.9263 104.066 16.7031 20.3183 5.30211 17.3084 -4.03148 -7.30395 -20.6969 18.0599 49.1862 -29.442 -1.57186 -1.00023 -1.29887e-009 1.55997e-007 -4.87031e-009 
55.069 98.3887 -26.1541 5.0041 11.1215 171.987 -26.2413 1.50131 23.4992 44.4277 13.6128 -40.5783 -22.7602 -1.44141 -1.25339 0.0462048 0.000533403 0.662642 -5.22211 26.0346 -0.334559 -0.00107012 0.000790011 -0.000379953 -10.6366 19.5073 16.2479 1.19271e-015 -6.36111e-015 -0 -169.946 -50.3642 -136.444 -93.9164 75.8914 -21.7097 18.2062 18.3374 -5.55842 16.4149 9.13614 1.28469 109.151 -9.05919 81.1214 -0.0608487 52.9067 104.697 16.6717 20.2807 5.21984 17.1667 -4.19521 -7.48089 -20.4785 17.8333 48.7903 -28.9978 -1.51377 -0.933858 -1.29887e-009 1.55997e-007 -4.8703e-009 
